<?xml version="1.0" encoding="iso-8859-1"?>
<!-- Generator: Adobe Illustrator 19.0.0, SVG Export Plug-In . SVG Version: 6.00 Build 0)  -->
<svg version="1.1" id="Capa_1" xmlns="http://www.w3.org/2000/svg" xmlns:xlink="http://www.w3.org/1999/xlink" x="0px" y="0px"
	 viewBox="0 0 480 480" style="fill: #ff4a3a" xml:space="preserve">
<g>
	<g>
		<g>
			<path d="M 472 464 h -48 V 200 c 0 -4.4 -3.6 -8 -8 -8 H 304 V 8 c 0 -4.4 -3.6 -8 -8 -8 H 88 c -4.4 0 -8 3.6 -8 8 v 456 H 8 c -4.4 0 -8 3.6 -8 8 s 3.6 8 8 8 h 464 c 4.4 0 8 -3.6 8 -8 S 476.4 464 472 464 z M 168 464 h -32 v -72 c 0 -4.4 3.6 -8 8 -8 h 16 c 4.4 0 8 3.6 8 8 V 464 z M 200 200 v 264 h -16 v -72 c 0 -13.3 -10.7 -24 -24 -24 h -16 c -13.3 0 -24 10.7 -24 24 v 72 H 96 V 16 h 192 v 176 h -80 C 203.6 192 200 195.6 200 200 z M 408 464 H 216 V 208 h 192 V 464 z"/>
			<path d="M 256 112 h -48 c -4.4 0 -8 3.6 -8 8 v 48 c 0 4.4 3.6 8 8 8 h 48 c 4.4 0 8 -3.6 8 -8 v -48 C 264 115.6 260.4 112 256 112 z M 248 160 h -32 v -32 h 32 V 160 z"/>
			<path d="M 256 32 h -48 c -4.4 0 -8 3.6 -8 8 v 48 c 0 4.4 3.6 8 8 8 h 48 c 4.4 0 8 -3.6 8 -8 V 40 C 264 35.6 260.4 32 256 32 z M 248 80 h -32 V 48 h 32 V 80 z"/>
			<path d="M 176 112 h -48 c -4.4 0 -8 3.6 -8 8 v 48 c 0 4.4 3.6 8 8 8 h 48 c 4.4 0 8 -3.6 8 -8 v -48 C 184 115.6 180.4 112 176 112 z M 168 160 h -32 v -32 h 32 V 160 z"/>
			<path d="M 176 32 h -48 c -4.4 0 -8 3.6 -8 8 v 48 c 0 4.4 3.6 8 8 8 h 48 c 4.4 0 8 -3.6 8 -8 V 40 C 184 35.6 180.4 32 176 32 z M 168 80 h -32 V 48 h 32 V 80 z"/>
			<path d="M 176 192 h -48 c -4.4 0 -8 3.6 -8 8 v 48 c 0 4.4 3.6 8 8 8 h 48 c 4.4 0 8 -3.6 8 -8 v -48 C 184 195.6 180.4 192 176 192 z M 168 240 h -32 v -32 h 32 V 240 z"/>
			<path d="M 176 272 h -48 c -4.4 0 -8 3.6 -8 8 v 48 c 0 4.4 3.6 8 8 8 h 48 c 4.4 0 8 -3.6 8 -8 v -48 C 184 275.6 180.4 272 176 272 z M 168 320 h -32 v -32 h 32 V 320 z"/>
			<path d="M 328 368 h 48 c 4.4 0 8 -3.6 8 -8 v -48 c 0 -4.4 -3.6 -8 -8 -8 h -48 c -4.4 0 -8 3.6 -8 8 v 48 C 320 364.4 323.6 368 328 368 z M 336 320 h 32 v 32 h -32 V 320 z"/>
			<path d="M 328 288 h 48 c 4.4 0 8 -3.6 8 -8 v -48 c 0 -4.4 -3.6 -8 -8 -8 h -48 c -4.4 0 -8 3.6 -8 8 v 48 C 320 284.4 323.6 288 328 288 z M 336 240 h 32 v 32 h -32 V 240 z"/>
			<path d="M 328 448 h 48 c 4.4 0 8 -3.6 8 -8 v -48 c 0 -4.4 -3.6 -8 -8 -8 h -48 c -4.4 0 -8 3.6 -8 8 v 48 C 320 444.4 323.6 448 328 448 z M 336 400 h 32 v 32 h -32 V 400 z"/>
			<path d="M 248 368 h 48 c 4.4 0 8 -3.6 8 -8 v -48 c 0 -4.4 -3.6 -8 -8 -8 h -48 c -4.4 0 -8 3.6 -8 8 v 48 C 240 364.4 243.6 368 248 368 z M 256 320 h 32 v 32 h -32 V 320 z"/>
			<path d="M 248 288 h 48 c 4.4 0 8 -3.6 8 -8 v -48 c 0 -4.4 -3.6 -8 -8 -8 h -48 c -4.4 0 -8 3.6 -8 8 v 48 C 240 284.4 243.6 288 248 288 z M 256 240 h 32 v 32 h -32 V 240 z"/>
			<path d="M 248 448 h 48 c 4.4 0 8 -3.6 8 -8 v -48 c 0 -4.4 -3.6 -8 -8 -8 h -48 c -4.4 0 -8 3.6 -8 8 v 48 C 240 444.4 243.6 448 248 448 z M 256 400 h 32 v 32 h -32 V 400 z"/>
		</g>
	</g>
</g>
</svg>
