<svg height="512" viewBox="0 0 64 64" width="512" xmlns="http://www.w3.org/2000/svg">
    <g id="house-home-4" data-name="house-home">
    <style>
        .red {fill: #ff4a3a}
    </style>
        <path class="red" d="m55 48.8v4.2h2v-4.2c1.725-.667 3-3.011 3-5.8 0-3.31-1.79-6-4-6s-4 2.69-4 6c0 2.792 1.275 5.136 3 5.8z" />
        <path class="red" d="m15 54h34v2h-34z" />
        <path class="red" d="m54.78 56h2.44l.5-2h-3.44z" />
        <path class="red" d="m43 20h-3v3.28l3 1.27z" />
        <path class="red" d="m14 31.49 17.61-7.41a.991.991 0 0 1 .78 0l17.61 7.41v-1.83l-18-7.58-18 7.58z" />
        <path class="red" d="m21 35h4v3h-4z" />
        <path class="red" d="m4 58h56v2h-56z" />
        <path class="red" d="m28 46v6h8v-6a4 4 0 0 0 -8 0zm3 3h-2v-2h2z" />
        <path class="red" d="m47 52v-19.6l-15-6.32-15 6.32v19.6h9v-6a6 6 0 0 1 12 0v6zm-20-13a1 1 0 0 1 -1 1h-6a1 1 0 0 1 -1-1v-5a1 1 0 0 1 1-1h6a1 1 0 0 1 1 1z" />
        <path class="red" d="m6 14a1.979 1.979 0 0 0 1.6-.811 1 1 0 0 1 1.4-.2 5.079 5.079 0 0 0 6.274-.216 1 1 0 0 1 .655-.244.813.813 0 0 1 .084 0 1 1 0 0 1 .687.361 3.017 3.017 0 1 0 1.355-4.723 1 1 0 0 1 -1.275-.651 5 5 0 0 0 -9.78 1.484 1 1 0 0 1 -1 1 2 2 0 0 0 0 4z" />
        <path class="red" d="m6.5 57h2v-5h2.5v-11h-7v11h2.5z" />
    </g>
</svg>