<svg xmlns="http://www.w3.org/2000/svg" id="streamline-icon-punishment-handcuffs_24x24" width="24" height="24.001" data-name="streamline-icon-punishment-handcuffs@24x24" viewBox="0 0 24 24.001">
    <defs>
        <style>
            .cls-1{fill:url(#linear-gradient)}
        </style>
        <linearGradient id="linear-gradient" x1="1" x2="0" y2="1" gradientUnits="objectBoundingBox">
            <stop offset="0" stop-color="#ff4a3a"/>
            <stop offset="1" stop-color="#bf392d"/>
        </linearGradient>
    </defs>
    <path id="Path_53" d="M8.832 13.8l-.753-3.04a1 1 0 0 0-.971-.76H3.891a1 1 0 0 0-.971.759l-.742 2.989a1.5 1.5 0 0 1-.431.732A5.5 5.5 0 1 0 11 18.5a5.232 5.232 0 0 0-1.735-3.961 1.491 1.491 0 0 1-.433-.739zM5.5 21A2.5 2.5 0 1 1 8 18.5 2.5 2.5 0 0 1 5.5 21zm16.765-6.461a1.494 1.494 0 0 1-.433-.735l-.753-3.044a1 1 0 0 0-.971-.76h-3.217a1 1 0 0 0-.971.759l-.742 2.989a1.5 1.5 0 0 1-.431.732A5.5 5.5 0 1 0 24 18.5a5.232 5.232 0 0 0-1.735-3.961zM18.5 21a2.5 2.5 0 1 1 2.5-2.5 2.5 2.5 0 0 1-2.5 2.5zM17.25 7.75v.5a.5.5 0 0 0 .5.5h1.5a.5.5 0 0 0 .5-.5v-.5a7.75 7.75 0 0 0-15.5 0v.5a.5.5 0 0 0 .5.5h1.5a.5.5 0 0 0 .5-.5v-.5a5.25 5.25 0 0 1 10.5 0z" class="cls-1" data-name="Path 53"/>
</svg>
