<svg xmlns="http://www.w3.org/2000/svg" id="streamline-icon-crime-robber_24x24" width="24.001" height="24" data-name="streamline-icon-crime-robber@24x24" viewBox="0 0 24.001 24">
    <defs>
        <style>
            .cls-1{fill:url(#linear-gradient)}
        </style>
        <linearGradient id="linear-gradient" x1="1" x2="0" y2="1" gradientUnits="objectBoundingBox">
            <stop offset="0" stop-color="#ff4a3a"/>
            <stop offset="1" stop-color="#bf392d"/>
        </linearGradient>
    </defs>
    <path id="Path_52" d="M13 4a2.5 2.5 0 1 1-2.5 2.5A2.5 2.5 0 0 1 13 4zm9.5 14.5h-1.739a2.512 2.512 0 0 1-2.337-1.614l-1.77-4.669a.249.249 0 0 1 .146-.322l.024-.008 2.447-.644a.5.5 0 0 1 .481.13l1.687 1.688a1.5 1.5 0 1 0 2.122-2.122l-1.688-1.687a3.514 3.514 0 0 0-3.366-.91l-7.659 2.015a.489.489 0 0 1-.352-.037l-.326-.162a1.5 1.5 0 0 0-1.34 2.684l.325.158a3.493 3.493 0 0 0 2.456.255l1.81-.476a.248.248 0 0 1 .3.153l.808 2.131a.251.251 0 0 1-.09.293l-1 .706A5.49 5.49 0 0 0 11 20.632V22.5a1.5 1.5 0 0 0 3 0v-1.868a2.513 2.513 0 0 1 1.133-2.094l.326-.23a.251.251 0 0 1 .369.095 5.52 5.52 0 0 0 4.933 3.1H22.5a1.5 1.5 0 0 0 0-3zM13 3a1 1 0 0 0 1-1V1a1 1 0 0 0-2 0v1a1 1 0 0 0 1 1zm3.182 1.318a1 1 0 0 0 .707-.293l1.061-1.061a1 1 0 0 0-1.389-1.439l-.025.025-1.061 1.061a1 1 0 0 0 .707 1.707zm-7.071-.293a1 1 0 1 0 1.439-1.389l-.025-.025L9.464 1.55A1 1 0 0 0 8.05 2.964zM7 7.5h1.5a1 1 0 0 0 0-2H7a1 1 0 0 0 0 2zm-.553 4.552a.25.25 0 0 1-.083-.335l1.2-2.093a.418.418 0 0 0-.158-.57A.425.425 0 0 0 7.2 9H2.8a.417.417 0 0 0-.361.624L3.627 11.7a.25.25 0 0 1-.094.341h-.006C2.584 12.564 0 13.8 0 16.917A4.74 4.74 0 0 0 4.891 21.5h.04A4.865 4.865 0 0 0 10 16.917c0-3.032-2.6-4.258-3.553-4.865zM16.5 6.5a1 1 0 0 0 1 1H19a1 1 0 0 0 0-2h-1.5a1 1 0 0 0-1 1z" class="cls-1" data-name="Path 52"/>
</svg>
