<svg xmlns="http://www.w3.org/2000/svg" id="streamline-icon-punishment-prisoner-bars_24x24" width="24" height="24" data-name="streamline-icon-punishment-prisoner-bars@24x24" viewBox="0 0 24 24">
    <defs>
        <style>
            .cls-1{fill:url(#linear-gradient)}
        </style>
        <linearGradient id="linear-gradient" x1="1" x2="0" y2="1" gradientUnits="objectBoundingBox">
            <stop offset="0" stop-color="#ff4a3a"/>
            <stop offset="1" stop-color="#bf392d"/>
        </linearGradient>
    </defs>
    <path id="Path_56" d="M2 0a2 2 0 0 0-2 2v20a2 2 0 0 0 2 2h20a2 2 0 0 0 2-2V2a2 2 0 0 0-2-2zm7.693 3.354A.248.248 0 0 0 9.75 3.2v-.95A.25.25 0 0 1 10 2h4a.25.25 0 0 1 .25.25v.95a.25.25 0 0 0 .057.159 2.94 2.94 0 0 1 0 3.792.25.25 0 0 0-.057.159v1.319a.25.25 0 0 1-.25.25.24.24 0 0 1-.06-.007A3.872 3.872 0 0 0 13 8.75h-2a3.872 3.872 0 0 0-.94.122.251.251 0 0 1-.3-.183.24.24 0 0 1-.007-.06V7.3a.25.25 0 0 0-.057-.159 2.94 2.94 0 0 1-.003-3.787zM4.25 21.752A.25.25 0 0 1 4 22H2.25a.25.25 0 0 1-.25-.25V2.25A.25.25 0 0 1 2.25 2H4a.25.25 0 0 1 .25.25zm8.25 0a.25.25 0 0 1-.25.25h-.5a.25.25 0 0 1-.25-.25V18.5a.5.5 0 0 1 1 0zm5.75 0A.248.248 0 0 1 18 22h-2.75a.248.248 0 0 1-.25-.248v-5h-1a2.234 2.234 0 0 1-1.8-.915.249.249 0 0 0-.348-.052.256.256 0 0 0-.052.052 2.234 2.234 0 0 1-1.8.915H9v5a.248.248 0 0 1-.248.25H6a.248.248 0 0 1-.25-.248V2.25A.25.25 0 0 1 6 2h2a.25.25 0 0 1 .25.25v7.424a.246.246 0 0 1-.083.185A4.215 4.215 0 0 0 6.75 13v.5A2.253 2.253 0 0 0 9 15.75h1a1.25 1.25 0 0 0 0-2.5h-.225a.5.5 0 0 1 0-1H10a2.234 2.234 0 0 1 1.8.915.249.249 0 0 0 .348.052.256.256 0 0 0 .052-.052 2.234 2.234 0 0 1 1.8-.915h.225a.5.5 0 0 1 0 1H14a1.25 1.25 0 0 0 0 2.5h1a2.253 2.253 0 0 0 2.25-2.25V13a4.215 4.215 0 0 0-1.417-3.141.246.246 0 0 1-.083-.185V2.25A.25.25 0 0 1 16 2h2a.25.25 0 0 1 .25.25zm3.75 0a.25.25 0 0 1-.25.25H20a.25.25 0 0 1-.25-.25V2.25A.25.25 0 0 1 20 2h1.75a.25.25 0 0 1 .25.25zM12 3.25a2 2 0 1 1-2 2 2 2 0 0 1 2-2z" class="cls-1" data-name="Path 56"/>
</svg>
