<svg xmlns="http://www.w3.org/2000/svg" width="22.487" height="23.998" viewBox="0 0 22.487 23.998">
    <defs>
        <style>
            .cls-1{fill:url(#linear-gradient)}
        </style>
        <linearGradient id="linear-gradient" x1="1" x2="0" y2="1" gradientUnits="objectBoundingBox">
            <stop offset="0" stop-color="#ff4a3a"/>
            <stop offset="1" stop-color="#bf392d"/>
        </linearGradient>
    </defs>
    <g id="streamline-icon-police-hat_24x24" data-name="streamline-icon-police-hat@24x24" transform="translate(-.756 -.001)">
        <path id="Path_55" d="M19.252 14.259c.285.069.57.134.862.2a.5.5 0 0 1 .388.488V16a.5.5 0 0 1-.5.5H4a.5.5 0 0 1-.5-.5v-1.055a.5.5 0 0 1 .389-.487c.289-.066.575-.13.851-.2A28.549 28.549 0 0 1 12 13.249a28.527 28.527 0 0 1 7.252 1.01zm3.92-6.18a2.41 2.41 0 0 0-1.1-1.53l-8.62-6.09a2.527 2.527 0 0 0-2.9 0l-8.6 6.07a2.512 2.512 0 0 0-1.13 1.55 2.541 2.541 0 0 0 .33 1.94l2.115 2.746a.5.5 0 0 0 .511.181c.21-.049.417-.1.624-.147a29.706 29.706 0 0 1 7.6-1.05 29.8 29.8 0 0 1 7.6 1.05c.208.053.416.1.627.15a.5.5 0 0 0 .507-.183l2.146-2.8a2.5 2.5 0 0 0 .29-1.887zm-8.61-.62a1.684 1.684 0 0 1-.76 1.42l-1.57 1.05a.443.443 0 0 1-.47 0l-1.57-1.05a1.713 1.713 0 0 1-.76-1.42v-2.27a.408.408 0 0 1 .21-.36 4.192 4.192 0 0 1 4.72 0 .419.419 0 0 1 .2.36v2.27zM19.7 18.044a.478.478 0 0 0-.2-.044h-15a.5.5 0 0 0-.207.045 1.949 1.949 0 0 0-1.161 1.537 1.877 1.877 0 0 0 .789 1.744 13.543 13.543 0 0 0 16.158 0 1.88 1.88 0 0 0 .789-1.744 1.948 1.948 0 0 0-1.168-1.538z" class="cls-1" data-name="Path 55"/>
    </g>
</svg>
