<svg xmlns="http://www.w3.org/2000/svg" width="13.657" height="24.002" viewBox="0 0 13.657 24.002">
    <defs>
        <style>
            .cls-1{fill:url(#linear-gradient)}
        </style>
        <linearGradient id="linear-gradient" x1="1" x2="0" y2="1" gradientUnits="objectBoundingBox">
            <stop offset="0" stop-color="#ff4a3a"/>
            <stop offset="1" stop-color="#bf392d"/>
        </linearGradient>
    </defs>
    <g id="streamline-icon-decoration-bottle-1_24x24" data-name="streamline-icon-decoration-bottle-1@24x24" transform="translate(-5.169)">
        <path id="Path_57" d="M16.65 15.176c-.656-.751-1.275-1.46-1.275-2.026a2.242 2.242 0 0 1 .421-1.108 4.324 4.324 0 0 0 .729-2.342 4.286 4.286 0 0 0-1.26-2.612 3.548 3.548 0 0 1-1.04-1.988 1.8 1.8 0 0 1 1.565-1.7 1.725 1.725 0 0 0-.419-3.4H8.629a1.725 1.725 0 0 0-.419 3.4 1.8 1.8 0 0 1 1.565 1.7 3.548 3.548 0 0 1-1.04 1.988A4.286 4.286 0 0 0 7.475 9.7a4.334 4.334 0 0 0 .725 2.342 2.242 2.242 0 0 1 .421 1.108c0 .566-.619 1.275-1.275 2.026-.969 1.11-2.175 2.491-2.175 4.3A4.4 4.4 0 0 0 9.443 24H14.3a4.4 4.4 0 0 0 4.525-4.271v-.254c0-1.808-1.206-3.189-2.175-4.299z" class="cls-1" data-name="Path 57"/>
    </g>
</svg>
