<svg xmlns="http://www.w3.org/2000/svg" id="Insta" width="30" height="29.788" viewBox="0 0 30 29.788">
    <defs>
        <style>
            .cls-1{fill:url(#radial-gradient)}.cls-2{fill:#fff;stroke:rgba(0,0,0,0)}
        </style>
        <radialGradient id="radial-gradient" cx="1.942" cy="29.136" r="38.36" gradientTransform="matrix(.993 0 0 .986 .014 .41)" gradientUnits="userSpaceOnUse">
            <stop offset=".09" stop-color="#fa8f21"/>
            <stop offset=".78" stop-color="#d82d7e"/>
        </radialGradient>
    </defs>
    <path id="circle" d="M15 0A14.894 14.894 0 1 1 0 14.894 14.947 14.947 0 0 1 15 0z" class="cls-1"/>
    <path id="instagram" d="M850.31 5304.87a2.654 2.654 0 1 1 2.653 2.611 2.633 2.633 0 0 1-2.653-2.611m-1.435 0a4.089 4.089 0 1 0 4.088-4.021 4.055 4.055 0 0 0-4.088 4.021m7.383-4.181a.956.956 0 1 0 .956-.939.948.948 0 0 0-.956.939m-6.511 10.556a4.46 4.46 0 0 1-1.478-.27 2.586 2.586 0 0 1-1.511-1.486c-.473-1.193-.316-6.866-.274-7.784a3.323 3.323 0 0 1 .869-2.355c.8-.784 1.825-1.167 8.828-.856a3.448 3.448 0 0 1 2.394.856c.8.783 1.191 1.8.869 8.685a4.277 4.277 0 0 1-.274 1.454c-.72 1.821-2.378 2.074-9.424 1.756m-.065-14.16a4.8 4.8 0 0 0-3.343 1.267 4.636 4.636 0 0 0-1.288 3.289c-.037.793-.251 6.788.37 8.359a4.01 4.01 0 0 0 2.329 2.291 5.949 5.949 0 0 0 1.933.364c7.089.316 9.718.144 10.826-2.655a5.653 5.653 0 0 0 .37-1.9c.323-7.01-.053-8.529-1.288-9.747-.98-.964-2.133-1.62-9.907-1.267" class="cls-2" transform="translate(-838 -5290)"/>
</svg>
