<svg xmlns="http://www.w3.org/2000/svg" width="186" height="60" viewBox="0 0 186 60">
    <defs>
        <style>
            .cls-1{fill:url(#linear-gradient)}
        </style>
        <linearGradient id="linear-gradient" x1="1" x2="0" y2="1" gradientUnits="objectBoundingBox">
            <stop offset="0" stop-color="#ff4a3a"/>
            <stop offset="1" stop-color="#bf392d"/>
        </linearGradient>
    </defs>
    <path id="Path_3" d="M434.933 635.426h-12.286v3.727l-5.257 6.477h17.543l-3.362-4.644-.122-.183.122-.244zm-54.339-25.112h30.379v7.886h11.675v3.116a4.788 4.788 0 0 1 3.24 1.955 1.228 1.228 0 0 1 .244.489l3.729-1.1a12.744 12.744 0 0 1-3-4.46 19.636 19.636 0 0 1-1.467-6.232h-5.623l.061-.428a6.579 6.579 0 0 1 1.589-3.6 4.714 4.714 0 0 1 2.139-1.344 5.963 5.963 0 0 1 2.567-.183 11.415 11.415 0 0 1 5.623 2.933 6.243 6.243 0 0 0 3.667 1.711 4.526 4.526 0 0 0 3.545-1.711 40.958 40.958 0 0 1 11.369-10.081 26.268 26.268 0 0 1 12.714-3.422H488.6l-.061.367a5.818 5.818 0 0 1-.795 3.361 3.218 3.218 0 0 1-2.567 1.405h-.55a5.736 5.736 0 0 1-2.078 3.3 5.194 5.194 0 0 1-3.117 1.1 5.7 5.7 0 0 1-2.078 3.361 5.275 5.275 0 0 1-2.139.978 5.9 5.9 0 0 1-2.078 3.36 6.45 6.45 0 0 1-3.912 1.1 5.505 5.505 0 0 1-2.017 3.238 6.146 6.146 0 0 1-4.1 1.1h-12.833a11.186 11.186 0 0 0-3.79.978 11.755 11.755 0 0 0-3.056 2.2l9.9 9.593.122.061v.122c.183.978-.122 1.528-.917 1.772a6.6 6.6 0 0 1-3-.183 2.7 2.7 0 0 1-1.834.733 3.835 3.835 0 0 1-2.262-.672v-.061h-.061l-.183-.183c-1.589 1.222-3.056.917-4.34-.917 0 .061-.061.122-.061.183a2.816 2.816 0 0 1-.795 1.528 2.535 2.535 0 0 1-1.528.489c-.245-.061-.489-.061-.734-.122l-.244-.061v-6.782l-1.956 2.261-.611.733v-3.177l-2.384 2.688-.672.733v-3.238l-1.589 2.016-.611.794v-3.422h-3.599c-.061.122-.122.183-.183.305a4.99 4.99 0 0 1-3.24 2.016v5.8h13.631l-.367.55-3.606 5.5 3.606 5.071.367.55h-19.987v-7.21h-5.379c0 1.955-.733 11.181-15.159 14.847h-.183c-13.875-3.483-15.22-12.77-15.281-14.847h-5.44v7.21H354.8l.428-.55 3.606-5.071-3.606-5.5-.367-.55h13.692v-5.8a4.984 4.984 0 0 1-3.3-2.016c-.061-.122-.061-.183-.122-.305h-3.606v3.422l-.672-.794-1.589-2.016v3.238l-.611-.733-2.384-2.688v3.177l-.611-.733-1.956-2.261v6.782l-.306.061c-.245.061-.489.061-.672.122a2.536 2.536 0 0 1-1.528-.489 3.344 3.344 0 0 1-.856-1.528v-.183a3.057 3.057 0 0 1-.428.489 3.419 3.419 0 0 1-1.589 1.1 2.369 2.369 0 0 1-1.773-.305 3.238 3.238 0 0 1-.611-.367l-.183.183-.061.061a3.72 3.72 0 0 1-2.262.672 2.7 2.7 0 0 1-1.834-.733 6.357 6.357 0 0 1-2.934.183c-.856-.244-1.161-.794-.978-1.772l.061-.122.061-.061 9.963-9.593a12.874 12.874 0 0 0-3.056-2.2 11.528 11.528 0 0 0-3.851-.978h-12.776a6.146 6.146 0 0 1-4.1-1.1 5.886 5.886 0 0 1-2.078-3.238 6.577 6.577 0 0 1-3.912-1.1 5.83 5.83 0 0 1-2.017-3.36 5.174 5.174 0 0 1-2.2-.978 5.639 5.639 0 0 1-2.017-3.361 5.381 5.381 0 0 1-3.178-1.1 5.666 5.666 0 0 1-2.017-3.3h-.611a3.2 3.2 0 0 1-2.506-1.405 5.8 5.8 0 0 1-.856-3.361v-.367h25.55a26.04 26.04 0 0 1 12.653 3.422 40.3 40.3 0 0 1 11.43 10.081 4.339 4.339 0 0 0 3.484 1.711 6.39 6.39 0 0 0 3.729-1.711 11.5 11.5 0 0 1 5.562-2.933 6.248 6.248 0 0 1 2.628.183 4.243 4.243 0 0 1 2.078 1.344 6.579 6.579 0 0 1 1.589 3.6l.061.428h-5.623a18.118 18.118 0 0 1-1.467 6.232 11.969 11.969 0 0 1-3 4.46l3.729 1.1a3.4 3.4 0 0 1 .306-.489 4.908 4.908 0 0 1 3.24-2.016V618.2h11.675v-7.882zm29.645 7.882v-7.21h-29.278v7.21zm15.1-9.409l-1.528.428-.183-.672 1.528-.428zm-59.6-.672l1.528.428-.183.672-1.528-.428zm36.308 4.46l.55 1.65h1.711l-1.406.977.55 1.65-1.406-1.039-1.345 1.039.489-1.65-1.406-.977h1.773zm-6.785 0l.55 1.65h1.711l-1.406.977.55 1.65-1.406-1.039-1.345 1.039.489-1.65-1.345-.977h1.711zm-6.724 0l.55 1.65h1.712l-1.406.977.55 1.65-1.406-1.039-1.406 1.039.55-1.65-1.406-.977h1.711zm-19.068 26.578l4.645 5.8v-5.8zm4.279 6.477l-5.2-6.477v-3.727h-12.343l3.362 5.132.122.245-.183.183-3.3 4.644zm-8.924-19.8a3.226 3.226 0 0 1-.061-.794 2.077 2.077 0 0 1 .061-.611l-7.885-2.261.183-.733 3.423.978h-.061a12.847 12.847 0 0 0 3.178-4.521 18.627 18.627 0 0 0 1.406-6.293v-.367h5.5a5.766 5.766 0 0 0-1.345-2.811 3.925 3.925 0 0 0-1.834-1.161 5.538 5.538 0 0 0-2.262-.122 10.079 10.079 0 0 0-5.2 2.75h-.061a7.111 7.111 0 0 1-4.1 1.894 5.186 5.186 0 0 1-4.1-1.955 40.824 40.824 0 0 0-11.186-9.959 24.941 24.941 0 0 0-12.347-3.3h-24.8a4.419 4.419 0 0 0 .672 2.566 2.636 2.636 0 0 0 2.017 1.161h14.731a34.727 34.727 0 0 1 16.381 2.627A32.316 32.316 0 0 1 349.665 613l-.611.489a30.952 30.952 0 0 0-12.225-9.9 34.989 34.989 0 0 0-16.076-2.627h-13.446a5.2 5.2 0 0 0 1.711 2.75 6.065 6.065 0 0 0 3.667.977H328.7v.733h-16.014v-.061a.225.225 0 0 1-.183.061 5.2 5.2 0 0 0 1.711 2.75 6.064 6.064 0 0 0 3.667.978H333.9v.672h-17.18a4.987 4.987 0 0 0 1.773 2.688 5.75 5.75 0 0 0 3.606.978l.061-.061h15.953v.733h-15.4a4.906 4.906 0 0 0 1.711 2.688 5.387 5.387 0 0 0 3.606.917h12.9a11.567 11.567 0 0 1 7.579 3.666l.244.244-.244.244-10.09 9.781c-.061.489.061.733.428.855a5.6 5.6 0 0 0 2.689-.244l7.4-7.515.489.55-7.152 7.271a2.173 2.173 0 0 0 1.222.489 3.1 3.1 0 0 0 1.773-.611l3.973-4.155.489.489-3.3 3.483c.183.122.306.244.428.306a1.671 1.671 0 0 0 1.284.183 2.267 2.267 0 0 0 1.284-.855 5.862 5.862 0 0 0 .795-1.283l.611-1.161.061 1.344a5.144 5.144 0 0 0 .183 1.1 1.921 1.921 0 0 0 .611 1.161 1.263 1.263 0 0 0 .978.305.551.551 0 0 0 .306-.061v-8.126l.611.733 1.956 2.322v-3.18l.611.672 2.384 2.75v-3.36l.672.794 1.589 1.955v-2.077h4.034zm3.729-3.849a4.965 4.965 0 0 0-2.689 1.65 3.355 3.355 0 0 0-.428 1.405 2.9 2.9 0 0 0 .428 1.405 4.16 4.16 0 0 0 2.689 1.711zm30.379 24.257a1.472 1.472 0 0 0 .367-.489 2.505 2.505 0 0 0 0-1.1 2.55 2.55 0 0 0-.367-.489 1.331 1.331 0 0 0-.489-.305 1.221 1.221 0 0 0-.55-.122 1.784 1.784 0 0 0-.55.122 1.1 1.1 0 0 0-.428.305 3.7 3.7 0 0 0-.428.611h-4.523c-.061 0-.061.061-.122.061v.672a.132.132 0 0 0 .122.122h.367v.55c0 .061.061.061.122.061H393a.131.131 0 0 0 .122-.122v-.489h3.362a2.192 2.192 0 0 0 .428.611 1.1 1.1 0 0 0 .428.306 1.788 1.788 0 0 0 .55.122 1.46 1.46 0 0 0 .55-.122 1.331 1.331 0 0 0 .489-.306zm-1.039-.305a.694.694 0 0 1-.489-.183.986.986 0 0 1-.183-.55.694.694 0 0 1 .183-.489.755.755 0 0 1 .489-.244.775.775 0 0 1 .55.244.694.694 0 0 1 .183.489.986.986 0 0 1-.183.55.747.747 0 0 1-.552.185zm24.755-17.78a4.014 4.014 0 0 0 2.628-1.711 2.377 2.377 0 0 0 .428-1.405 2.656 2.656 0 0 0-.428-1.405 4.415 4.415 0 0 0-2.628-1.589zm3.729-3.727a2.078 2.078 0 0 1 .061.611 3.093 3.093 0 0 1-.122.794h4.034v2.077l1.65-1.955.611-.794v3.361l2.384-2.749.611-.672v3.177l1.956-2.322.672-.733v8.126a.368.368 0 0 0 .245.061 1.413 1.413 0 0 0 1.039-.305 2.3 2.3 0 0 0 .611-1.161 5.477 5.477 0 0 0 .122-1.1l.061-1.344.611 1.161c1.1 2.138 2.384 2.688 3.79 1.65l-3.3-3.483.55-.489 3.912 4.155a3.429 3.429 0 0 0 1.834.611 2.36 2.36 0 0 0 1.222-.489l-7.213-7.271.55-.55 7.4 7.515a5.364 5.364 0 0 0 2.628.244.686.686 0 0 0 .489-.855l-10.147-9.776-.245-.244.245-.244a12.771 12.771 0 0 1 3.545-2.566 11.291 11.291 0 0 1 4.1-1.1h12.836a5.667 5.667 0 0 0 3.667-.916 5.267 5.267 0 0 0 1.712-2.688h-15.473v-.733h16.014v.061a6.064 6.064 0 0 0 3.667-.978 5.268 5.268 0 0 0 1.711-2.688h-17.174v-.672h16.014a6.065 6.065 0 0 0 3.667-.978 4.86 4.86 0 0 0 1.711-2.75.225.225 0 0 1-.183-.061v.061h-16.014v-.733h16.014a6.064 6.064 0 0 0 3.667-.978 4.932 4.932 0 0 0 1.773-2.75h-13.508a34.726 34.726 0 0 0-16.014 2.627 31.122 31.122 0 0 0-12.286 9.9l-.55-.489a32.315 32.315 0 0 1 12.53-10.081 34.727 34.727 0 0 1 16.381-2.627h14.67a2.636 2.636 0 0 0 2.017-1.161 4.917 4.917 0 0 0 .733-2.566H463.05a24.772 24.772 0 0 0-12.347 3.3 40.824 40.824 0 0 0-11.186 9.959h-.061a5.077 5.077 0 0 1-4.034 1.955 7.438 7.438 0 0 1-4.156-1.894 10.014 10.014 0 0 0-5.257-2.75 5.538 5.538 0 0 0-2.262.122 3.75 3.75 0 0 0-1.773 1.161 5.281 5.281 0 0 0-1.345 2.811h5.5v.367a17.274 17.274 0 0 0 1.406 6.293 11.982 11.982 0 0 0 3.117 4.521l3.362-.978.183.733zm-51.222 7.332v-3.666l2.078 3.666h2.078l-2.323-3.727 2.078-3.3h-2.017l-1.895 3.3v-3.3h-1.711v7.026zm11.552-4.766a2.249 2.249 0 0 0-2.384-2.261h-2.812v7.026h1.711v-2.505h1.1a2.25 2.25 0 0 0 2.384-2.258zm-1.711 0a.758.758 0 0 1-.795.733h-.978v-1.466h.978a.758.758 0 0 1 .798.735zm9.107 4.766v-1.527h-3.056v-1.221h2.628v-1.589h-2.628v-1.161h3.052v-1.528h-4.829v7.026zm7.824 0v-7.026h-1.711v3.055c-.183 0-.672.061-1.1.061a.577.577 0 0 1-.611-.611v-2.505h-1.773v2.994a1.718 1.718 0 0 0 1.773 1.711 7.841 7.841 0 0 0 1.711-.183v2.505zm7.824 0v-1.527h-3.056v-1.221h2.628v-1.589h-2.628v-1.161h3.056v-1.528h-4.829v7.026zm7.64-5.5v-1.528h-5.257v1.528h1.773v5.5h1.711v-5.5zm-.367 12.892v5.866l4.707-5.866zm-6.785 0h-29.279c.122 2.016 1.406 10.754 14.731 14.114 13.753-3.541 14.486-12.278 14.547-14.111zm11.675-20.224h-52.629v19.494h52.628zM395.508 594a1.245 1.245 0 0 1 .917.367 1.387 1.387 0 0 1 .367.978 1.243 1.243 0 0 1-.367.917c-.122.061-.245.183-.367.244l3.178 2.688 2.689-2.383a1.1 1.1 0 0 1-.428-.305 1.194 1.194 0 0 1-.428-.917 1.3 1.3 0 0 1 .428-.916 1.153 1.153 0 0 1 .917-.367 1.3 1.3 0 0 1 .917 2.2 1.062 1.062 0 0 1-.672.367v10.815h-13.874v-10.755a1.3 1.3 0 0 1-.917-.428 1.152 1.152 0 0 1-.367-.917 1.3 1.3 0 0 1 2.2-.916 1.3 1.3 0 0 1 .428.916 1.194 1.194 0 0 1-.428.917c-.061.122-.183.183-.244.244l2.567 2.322 2.873-2.566a1.278 1.278 0 0 1-.367-.244 1.243 1.243 0 0 1-.367-.917 1.262 1.262 0 0 1 1.345-1.344zm6.418 12.953v-1.222h-12.408v1.222zm-.55-1.894l-3.79-3.422-1.345 1.222 2.445 2.2zm-3.729 0l-1.956-1.711-1.895 1.711zm-4.951 0l2.506-2.2-1.467-1.344-3.729 3.544zm3-2.688l1.406-1.222-1.528-1.405-1.345 1.283zm-6.173 2.2l3.667-3.544-1.161-.977-2.506 2.261zm4.156-4.032l1.65-1.528.244-.244.245.244 1.773 1.65 1.1-.978-3.178-2.749-2.934 2.627zm-4.156.794l1.956-1.772-1.956-1.772zm-.733-5.132v-.061l.061.061a.528.528 0 0 0 .367-.183.591.591 0 1 0-.428.183zm11 3.483l2.139 1.833v-3.727zm2.139 2.811l-2.689-2.322-1.1.978 3.79 3.422zm.917-7.332a.591.591 0 1 0 .183.428.555.555 0 0 0-.186-.43zm-6.907-.244a.66.66 0 0 0-.428-.183.626.626 0 0 0-.611.611.66.66 0 0 0 .183.428.713.713 0 0 0 .428.122.458.458 0 0 0 .55-.55.712.712 0 0 0-.125-.431z" class="cls-1" data-name="Path 3" transform="translate(-302.6 -594)"/>
</svg>
