<svg xmlns="http://www.w3.org/2000/svg" width="31" height="30.788" viewBox="0 0 31 30.788">
    <defs>
        <style>
            .cls-1{fill:#5181b8;stroke:rgba(0,0,0,0)}.cls-2{fill:#fff;fill-rule:evenodd}
        </style>
    </defs>
    <g id="VK" transform="translate(.5 .5)">
        <ellipse id="circle" cx="15" cy="14.894" class="cls-1" rx="15" ry="14.894"/>
        <path id="Logo" d="M53.647 66.671c.118-.395 0-.671-.553-.671h-1.841a.793.793 0 0 0-.8.526 15.157 15.157 0 0 1-2.263 3.763c-.434.434-.618.566-.855.566-.118 0-.289-.132-.289-.526v-3.658c0-.474-.132-.671-.526-.671h-2.899a.455.455 0 0 0-.474.421c0 .447.658.553.737 1.789v2.711c0 .592-.105.7-.342.7-.618 0-2.145-2.289-3.039-4.921-.184-.487-.355-.7-.829-.7h-1.842c-.526 0-.632.25-.632.526 0 .487.618 2.908 2.908 6.105A7.19 7.19 0 0 0 45.726 76c1.171 0 1.316-.263 1.316-.711v-1.657c0-.526.105-.632.487-.632.276 0 .737.132 1.829 1.184 1.25 1.25 1.46 1.816 2.158 1.816h1.842c.526 0 .789-.263.632-.776a8.194 8.194 0 0 0-1.553-2.158c-.434-.513-1.079-1.053-1.263-1.329-.276-.355-.2-.513 0-.816 0-.013 2.25-3.171 2.474-4.25z" class="cls-2" transform="translate(-30.2 -56.106)"/>
    </g>
</svg>
